<?xml version="1.0" encoding="UTF-8"?>
<svg xmlns="http://www.w3.org/2000/svg" xmlns:xlink="http://www.w3.org/1999/xlink" width="792" height="864" viewBox="0 0 792 864">
<path fill-rule="nonzero" fill="#FFFFFF" fill-opacity="1" d="M 326.476562 428.984375 C 345.386719 433.359375 363.636719 438.816406 382.921875 442.566406 C 385.890625 433.191406 388.671875 424.308594 391.523438 415.445312 C 393.488281 409.335938 395.644531 403.28125 397.542969 397.148438 C 399.09375 392.132812 400.453125 387.050781 401.769531 381.964844 C 402.25 380.101562 400.992188 379.347656 399.328125 378.867188 C 396.089844 377.933594 392.910156 376.785156 389.6875 375.800781 C 387.464844 375.121094 386.882812 373.488281 386.933594 371.4375 C 386.953125 370.773438 386.921875 370.042969 387.183594 369.464844 C 390.105469 363.046875 389.011719 356.109375 389.8125 349.421875 C 389.894531 348.757812 389.847656 348.082031 389.953125 347.425781 C 390.441406 344.332031 391.464844 343.398438 394.480469 344.050781 C 399.761719 345.195312 404.992188 346.578125 410.222656 347.9375 C 417.730469 349.890625 425.246094 351.835938 432.71875 353.921875 C 438.140625 355.433594 443.523438 357.078125 448.867188 358.835938 C 450.882812 359.5 451.554688 361.109375 451.375 363.367188 C 450.953125 368.710938 449.523438 373.488281 445.546875 377.363281 C 444.890625 378.007812 444.769531 379.617188 444.980469 380.664062 C 446.140625 386.464844 443.484375 389.558594 437.5625 388.847656 C 434.757812 388.507812 432.023438 387.597656 429.21875 387.21875 C 424.976562 386.640625 424.003906 387.570312 423.101562 391.773438 C 421.59375 398.769531 419.855469 405.71875 418.355469 412.71875 C 416.964844 419.1875 415.777344 425.699219 414.445312 432.183594 C 413.742188 435.613281 412.863281 439.007812 412.171875 442.441406 C 411.691406 444.839844 411.394531 447.273438 410.941406 450.175781 C 429.597656 456.519531 448.523438 460.839844 467.773438 466.722656 C 465.769531 468.460938 464.335938 469.855469 462.753906 471.050781 C 459.871094 473.21875 456.890625 475.253906 453.976562 477.371094 C 448.226562 481.550781 442.296875 479.871094 436.3125 478.023438 C 429.726562 475.984375 423.109375 474.050781 416.496094 472.113281 C 414.328125 471.476562 412.117188 470.976562 409.9375 470.390625 C 408.019531 469.871094 407.039062 470.988281 406.585938 472.527344 C 405.289062 476.949219 404.179688 481.421875 402.902344 485.847656 C 401.496094 490.734375 399.921875 495.566406 398.550781 500.460938 C 397.183594 505.34375 395.992188 510.277344 394.699219 515.179688 C 393.171875 520.984375 391.609375 526.78125 390.070312 532.582031 C 389.476562 534.839844 388.828125 537.085938 388.335938 539.363281 C 387.605469 542.75 387.09375 546.183594 386.3125 549.554688 C 385.4375 553.300781 384.363281 557 383.378906 560.722656 C 383.308594 560.992188 383.207031 561.265625 383.1875 561.546875 C 382.570312 569.566406 381.683594 577.582031 381.460938 585.613281 C 381.316406 590.761719 383.589844 595.195312 387.550781 598.742188 C 390.71875 601.585938 394.613281 602.730469 398.519531 603.242188 C 404.949219 604.089844 411.207031 602.5 417.335938 600.542969 C 421.429688 599.234375 425.589844 598.132812 429.648438 596.730469 C 435.433594 594.734375 441.15625 592.550781 447.855469 590.097656 C 444.59375 587.648438 442.035156 585.433594 439.1875 583.679688 C 436.960938 582.308594 437.304688 581.554688 439.144531 580.289062 C 444.625 576.535156 450.269531 572.972656 455.425781 568.808594 C 460.328125 564.855469 464.703125 560.242188 469.308594 555.914062 C 470.742188 554.5625 472.171875 553.199219 473.695312 551.757812 C 478.511719 555.855469 480.40625 561.316406 481.011719 566.90625 C 481.664062 572.910156 481.703125 579.144531 480.847656 585.113281 C 479.921875 591.589844 477.675781 597.882812 475.957031 604.242188 C 475.550781 605.75 474.421875 606.160156 473.066406 605.507812 C 471.972656 604.984375 471 604.21875 469.949219 603.601562 C 463.925781 600.058594 462.996094 601.164062 459.707031 606.328125 C 454.707031 614.179688 448.398438 620.710938 440.058594 624.550781 C 432.207031 628.164062 423.851562 630.808594 415.535156 633.257812 C 406.808594 635.824219 397.886719 637.726562 389.015625 639.785156 C 383.054688 641.167969 376.984375 642.121094 371.054688 643.632812 C 364.53125 645.292969 358.125 647.398438 351.648438 649.257812 C 349.382812 649.910156 347.078125 650.460938 344.769531 650.964844 C 341.78125 651.621094 340.074219 649.5625 338.265625 647.753906 C 329.648438 639.144531 321.132812 630.429688 312.382812 621.960938 C 302.601562 612.488281 292.519531 603.328125 282.726562 593.867188 C 274.402344 585.828125 268.472656 576.15625 265.417969 565.019531 C 263.878906 559.394531 263.5625 553.433594 262.621094 547.117188 C 260.199219 546.996094 257.390625 546.953125 254.605469 546.691406 C 251.011719 546.355469 250.433594 545.792969 251.191406 542.222656 C 252.152344 537.699219 253.613281 533.28125 254.789062 528.800781 C 256.910156 520.707031 261.070312 513.769531 266.757812 507.730469 C 270.285156 503.980469 274.226562 500.753906 279.429688 498.972656 C 280.703125 504.078125 282.140625 508.992188 283.132812 513.992188 C 284.789062 522.332031 288.332031 529.890625 292.214844 537.339844 C 292.691406 538.261719 293.105469 539.21875 293.546875 540.15625 C 295.480469 544.238281 295.480469 544.226562 290.855469 544.664062 C 288.429688 544.894531 286.003906 545.175781 282.785156 545.515625 C 284.832031 548.328125 286.492188 550.722656 288.265625 553.027344 C 294.667969 561.351562 301.375 569.40625 309.714844 575.890625 C 314.425781 579.550781 319.417969 582.78125 325.5625 583.554688 C 334.003906 584.617188 339.132812 579.894531 342.894531 573.261719 C 345.394531 568.855469 347.660156 564.273438 349.539062 559.578125 C 351.558594 554.519531 352.992188 549.226562 354.703125 544.046875 C 356.789062 537.738281 359.015625 531.472656 360.960938 525.125 C 362.371094 520.523438 363.394531 515.804688 364.652344 511.15625 C 365.625 507.550781 366.730469 503.980469 367.707031 500.378906 C 368.347656 498.019531 368.871094 495.632812 369.417969 493.253906 C 370.617188 488.019531 371.761719 482.777344 373 477.554688 C 373.789062 474.238281 374.609375 470.917969 375.605469 467.660156 C 377.03125 462.984375 376.105469 461.328125 371.40625 460.136719 C 363.792969 458.207031 356.214844 456.160156 348.617188 454.171875 C 346.34375 453.574219 344.089844 452.765625 341.773438 452.46875 C 336.109375 451.75 333.847656 447.414062 331.738281 443.109375 C 329.796875 439.148438 328.347656 434.941406 326.710938 430.832031 C 326.546875 430.414062 326.585938 429.914062 326.476562 428.984375 "/>
<path fill-rule="nonzero" fill="#FFFFFF" fill-opacity="1" d="M 520.019531 26.511719 C 524.453125 27.664062 528.691406 28.648438 532.824219 29.957031 C 533.582031 30.199219 534.464844 31.855469 534.339844 32.722656 C 533.914062 35.699219 533.15625 38.644531 532.371094 41.558594 C 528.511719 55.886719 524.632812 70.210938 520.691406 84.515625 C 518.789062 91.421875 516.648438 98.261719 514.769531 105.175781 C 512.867188 112.167969 511.179688 119.21875 509.351562 126.230469 C 507.585938 133.007812 505.820312 139.78125 503.933594 146.527344 C 503.15625 149.300781 501.753906 149.886719 498.441406 148.976562 C 495.253906 148.101562 492.042969 147.234375 488.996094 145.984375 C 487.699219 145.453125 486.378906 144.136719 485.820312 142.851562 C 485.09375 141.167969 484.828125 139.160156 484.855469 137.296875 C 485.144531 113.78125 485.53125 90.269531 485.863281 66.757812 C 485.929688 62.296875 485.875 57.835938 485.875 53.371094 C 485.539062 53.257812 485.203125 53.144531 484.871094 53.03125 C 484.210938 54.382812 483.359375 55.675781 482.925781 57.097656 C 481.324219 62.316406 479.800781 67.558594 478.359375 72.824219 C 476.949219 77.984375 475.734375 83.199219 474.324219 88.359375 C 472.949219 93.371094 471.375 98.328125 469.996094 103.339844 C 468.617188 108.363281 467.398438 113.429688 466.0625 118.46875 C 464.4375 124.578125 462.804688 130.6875 461.050781 136.757812 C 460.902344 137.265625 459.742188 137.917969 459.199219 137.804688 C 455.3125 136.996094 451.441406 136.101562 447.625 135.019531 C 446.273438 134.636719 445.441406 133.910156 446.042969 131.863281 C 448.363281 123.964844 450.316406 115.960938 452.382812 107.992188 C 454.257812 100.773438 456.03125 93.527344 457.980469 86.328125 C 459.925781 79.128906 462.078125 71.988281 464.050781 64.800781 C 465.878906 58.140625 467.554688 51.4375 469.359375 44.773438 C 470.820312 39.398438 472.40625 34.058594 473.871094 28.6875 C 474.71875 25.585938 475.496094 22.464844 476.195312 19.328125 C 476.929688 16.042969 477.828125 15.234375 481.015625 15.972656 C 485.496094 17.011719 489.96875 18.144531 494.359375 19.503906 C 496.886719 20.285156 498.375 22.371094 498.898438 24.949219 C 499.257812 26.707031 499.472656 28.53125 499.472656 30.324219 C 499.476562 50.707031 499.417969 71.089844 499.402344 91.472656 C 499.402344 93.335938 499.585938 95.203125 499.683594 97.070312 C 500 97.121094 500.316406 97.171875 500.632812 97.226562 C 507.070312 73.730469 513.511719 50.234375 520.019531 26.511719 "/>
<path fill-rule="nonzero" fill="#FFFFFF" fill-opacity="1" d="M 47.578125 385.765625 C 51.277344 379.492188 55.585938 379.886719 60.101562 383.160156 C 63.808594 385.851562 66.613281 389.777344 70.035156 393.382812 C 73.917969 392.15625 78.46875 383.070312 76.746094 377.824219 C 74.765625 371.789062 71.507812 366.679688 66.046875 363.324219 C 61.851562 360.742188 57.261719 360.636719 52.730469 362.503906 C 51.824219 362.878906 51.277344 364.058594 50.464844 364.753906 C 49.28125 365.773438 48.007812 366.691406 46.730469 367.6875 C 44.292969 363.304688 46.867188 356.519531 50.75 353.953125 C 60.566406 347.476562 71.363281 346.953125 82.011719 350.828125 C 90.933594 354.074219 97.445312 360.847656 101.992188 369.183594 C 104.945312 374.589844 107.652344 380.171875 109.964844 385.878906 C 111.585938 389.878906 112.253906 394.25 113.546875 398.394531 C 113.992188 399.828125 115.089844 402.214844 115.808594 402.183594 C 117.585938 402.109375 119.707031 401.28125 120.957031 400.027344 C 122.300781 398.679688 123.179688 396.578125 123.589844 394.664062 C 124.363281 391.066406 123.308594 388.214844 119.308594 387.03125 C 118.289062 386.734375 117.480469 385.726562 116.59375 385.058594 C 119.15625 380.269531 122.414062 379.09375 126.480469 382.242188 C 130.253906 385.164062 133.515625 388.777344 136.800781 392.277344 C 138.28125 393.863281 139 393.925781 140.855469 392.554688 C 144.6875 389.722656 143.808594 385.59375 144.050781 382.054688 C 144.625 373.683594 141.414062 366.796875 133.53125 363.089844 C 131.136719 361.964844 128.03125 362.3125 125.246094 362.042969 C 122.191406 361.746094 119.796875 362.730469 118.195312 365.535156 C 117.714844 366.371094 116.703125 366.90625 115.925781 367.585938 C 112.738281 363.367188 113.140625 358.675781 117.652344 355.355469 C 120.675781 353.136719 124.328125 351.507812 127.945312 350.4375 C 131.507812 349.382812 135.367188 349.054688 139.113281 348.941406 C 151.296875 348.574219 160.417969 354.078125 166.777344 364.253906 C 172.949219 374.128906 177.179688 384.859375 180.222656 396.070312 C 181.585938 401.078125 183.960938 403.140625 189.246094 403.660156 C 190.570312 403.789062 191.957031 403.605469 193.226562 403.929688 C 194.929688 404.355469 196.542969 405.136719 198.820312 406.003906 C 193.738281 408.859375 189.128906 408.53125 184.632812 408.539062 C 141.113281 408.648438 97.59375 408.691406 54.078125 408.742188 C 50.570312 408.746094 50.089844 408.402344 50.558594 405.015625 C 50.820312 403.144531 51.5625 401.054688 52.773438 399.660156 C 56.640625 395.199219 56.390625 389.234375 49.707031 386.984375 C 49.015625 386.753906 48.410156 386.25 47.578125 385.765625 "/>
<path fill-rule="nonzero" fill="#FFFFFF" fill-opacity="1" d="M 674.308594 388.855469 C 679.410156 383.597656 685.753906 383.957031 690.308594 389.53125 C 691.933594 391.519531 693.242188 393.769531 694.933594 395.691406 C 697.082031 398.132812 699.382812 397.824219 700.617188 394.925781 C 704.5625 385.703125 703.105469 374.410156 693.609375 367.847656 C 689.730469 365.167969 682.589844 363.925781 678.34375 367.28125 C 677.027344 368.320312 676.3125 370.121094 675.285156 371.636719 C 671.414062 367.316406 671.96875 362.257812 675.492188 359.464844 C 679.644531 356.167969 684.324219 354.042969 689.765625 353.632812 C 694.160156 353.296875 698.382812 352.597656 702.953125 353.363281 C 713.074219 355.066406 720.320312 360.433594 725.472656 368.910156 C 730.8125 377.703125 734.59375 387.195312 737.53125 397.046875 C 738.378906 399.902344 739.558594 402.679688 740.828125 405.375 C 741.167969 406.09375 742.359375 406.65625 743.246094 406.820312 C 746.507812 407.417969 749.8125 407.746094 753.070312 408.335938 C 754.097656 408.523438 755.027344 409.226562 756 409.691406 C 755.960938 409.96875 755.921875 410.246094 755.882812 410.523438 C 751.976562 410.824219 748.070312 411.273438 744.160156 411.398438 C 728.460938 411.898438 712.757812 412.523438 697.054688 412.6875 C 669.152344 412.972656 641.246094 412.972656 613.34375 413.011719 C 611.898438 413.011719 609.253906 412.359375 609.21875 411.859375 C 609.054688 409.632812 609.363281 407.265625 610.03125 405.113281 C 610.574219 403.367188 612.109375 401.949219 612.78125 400.21875 C 614.171875 396.65625 613.035156 393.925781 609.664062 391.878906 C 608.378906 391.097656 607.101562 390.304688 605.824219 389.523438 C 608.207031 385.359375 613.339844 383.769531 617.136719 386.199219 C 620.949219 388.640625 624.355469 391.566406 626.183594 395.933594 C 626.808594 397.421875 628.976562 397.835938 629.988281 396.605469 C 632.601562 393.421875 635.496094 389.972656 635.195312 385.792969 C 634.925781 382.078125 633.667969 378.0625 631.644531 374.957031 C 629.535156 371.710938 626.265625 368.988281 623.007812 366.769531 C 618.597656 363.765625 612.582031 364.9375 608.769531 368.660156 C 607.585938 369.8125 606.085938 370.640625 604.65625 371.664062 C 602.800781 365.109375 604.960938 360.484375 609.683594 357.496094 C 617.214844 352.742188 625.503906 351.390625 634.582031 353.25 C 647.769531 355.949219 655.515625 364.503906 660.691406 375.898438 C 664.921875 385.214844 668.414062 394.867188 672.179688 404.390625 C 673.105469 406.730469 675.394531 407.390625 677.441406 405.820312 C 680.550781 403.4375 682.175781 400.242188 682.160156 396.402344 C 682.152344 394.347656 681.214844 392.707031 678.832031 391.949219 C 677.230469 391.4375 675.925781 390.003906 674.308594 388.855469 "/>
<path fill-rule="nonzero" fill="#FFFFFF" fill-opacity="1" d="M 686.203125 627.488281 C 685.125 625.464844 684.34375 623.480469 683.128906 621.8125 C 679.511719 616.847656 674.753906 613.195312 669.148438 610.738281 C 663.640625 608.324219 659.554688 608.125 655.519531 613.945312 C 654.585938 615.285156 653.644531 616.621094 652.636719 617.902344 C 650.179688 621.027344 650.0625 621.144531 653.363281 623.652344 C 657.0625 626.464844 660.980469 628.984375 664.769531 631.675781 C 668.492188 634.324219 672.121094 637.113281 675.914062 639.660156 C 676.855469 640.289062 678.234375 640.839844 679.167969 639.007812 C 680.050781 637.269531 681.464844 635.804688 682.492188 634.121094 C 683.765625 632.046875 684.878906 629.875 686.203125 627.488281 Z M 733.554688 657.390625 C 733.1875 656.71875 732.476562 656.003906 732.441406 655.253906 C 732.292969 651.976562 729.839844 650.328125 727.683594 648.691406 C 723.128906 645.238281 718.4375 641.945312 713.613281 638.886719 C 711.828125 637.757812 709.535156 637.027344 707.429688 636.898438 C 702.460938 636.601562 699.679688 640.042969 696.789062 643.535156 C 691.664062 649.730469 691.535156 649.988281 697.488281 654.652344 C 697.703125 654.820312 698.023438 654.84375 698.253906 654.992188 C 702.835938 658.011719 707.441406 660.992188 711.976562 664.082031 C 715.332031 666.371094 718.503906 668.945312 721.949219 671.082031 C 722.789062 671.605469 724.910156 671.386719 725.535156 670.691406 C 727.464844 668.539062 729.074219 666.0625 730.582031 663.578125 C 731.710938 661.71875 732.488281 659.644531 733.554688 657.390625 Z M 699.164062 623.347656 C 708.484375 620.195312 717.402344 621.136719 725.707031 625.164062 C 736.257812 630.277344 745.644531 637.160156 749.796875 648.769531 C 751.742188 654.21875 751.367188 660.117188 748.332031 665.308594 C 743.699219 673.234375 738.832031 681.027344 733.972656 688.816406 C 732.496094 691.183594 730.554688 693.265625 729.140625 695.664062 C 728.121094 697.386719 726.9375 697.011719 725.863281 696.277344 C 717.210938 690.359375 708.601562 684.367188 699.992188 678.378906 C 687.234375 669.496094 674.496094 660.589844 661.738281 651.710938 C 650.613281 643.96875 639.46875 636.25 628.351562 628.496094 C 627.597656 627.972656 626.976562 627.257812 625.945312 626.3125 C 631.183594 619.101562 636.183594 611.867188 641.566406 604.929688 C 644.761719 600.808594 648.339844 596.925781 652.136719 593.347656 C 656.992188 588.777344 663.234375 588.777344 669.007812 590.550781 C 677.007812 593.003906 684.144531 597.367188 690.332031 603.152344 C 695.648438 608.121094 698.023438 614.410156 698.914062 621.429688 C 698.984375 621.984375 699.058594 622.539062 699.164062 623.347656 "/>
<path fill-rule="nonzero" fill="#FFFFFF" fill-opacity="1" d="M 306.730469 74.179688 C 309.8125 73.582031 312.621094 73.078125 315.410156 72.480469 C 320.199219 71.457031 323.082031 68.097656 323.199219 63.355469 C 323.265625 60.695312 323.246094 58.027344 323.125 55.367188 C 322.808594 48.363281 320.859375 41.765625 316.578125 36.253906 C 315.199219 34.476562 312.117188 33.386719 309.722656 33.207031 C 307.03125 33.003906 304.164062 33.980469 301.519531 34.863281 C 300.347656 35.257812 298.648438 36.746094 298.703125 37.640625 C 298.894531 40.695312 299.683594 43.730469 300.390625 46.734375 C 301.214844 50.210938 302.292969 53.628906 303.085938 57.113281 C 304.359375 62.703125 305.488281 68.324219 306.730469 74.179688 Z M 303.351562 143.960938 C 294.578125 103.769531 285.820312 63.65625 276.941406 22.972656 C 282.894531 21.769531 288.453125 20.390625 294.089844 19.578125 C 301.523438 18.503906 309.023438 17.929688 316.484375 17.050781 C 323.886719 16.175781 329.460938 19.726562 332.847656 25.519531 C 340.523438 38.667969 343.136719 52.828125 338.207031 67.703125 C 337.304688 70.429688 335.695312 72.921875 334.238281 75.867188 C 336.15625 76.949219 338.089844 78.019531 339.996094 79.132812 C 344.089844 81.523438 346.789062 85.210938 348.160156 89.546875 C 350.222656 96.074219 351.695312 102.789062 353.417969 109.425781 C 355.148438 116.089844 356.816406 122.769531 358.640625 129.410156 C 359.253906 131.648438 358.71875 132.359375 356.367188 132.703125 C 352.65625 133.25 348.992188 134.238281 345.375 135.261719 C 343.269531 135.859375 341.996094 135.730469 341.359375 133.3125 C 339.363281 125.703125 337.175781 118.148438 335.183594 110.539062 C 334.371094 107.445312 333.960938 104.25 333.222656 101.132812 C 332.214844 96.867188 330.761719 92.75 326.75 90.355469 C 325.390625 89.542969 323.605469 89.078125 322.011719 89.085938 C 319.195312 89.089844 316.300781 89.265625 313.585938 89.953125 C 311.285156 90.535156 310.691406 92.808594 311.0625 94.960938 C 311.839844 99.433594 312.789062 103.878906 313.765625 108.316406 C 315.183594 114.789062 316.710938 121.238281 318.140625 127.710938 C 318.914062 131.222656 319.691406 134.742188 320.21875 138.296875 C 320.332031 139.066406 319.539062 140.578125 318.890625 140.757812 C 314.519531 141.976562 310.074219 142.941406 305.640625 143.941406 C 305.019531 144.082031 304.339844 143.960938 303.351562 143.960938 "/>
<path fill-rule="nonzero" fill="#FFFFFF" fill-opacity="1" d="M 286.554688 788.164062 C 284.808594 794.492188 283.144531 800.664062 281.394531 806.8125 C 279.984375 811.78125 278.40625 816.710938 277.027344 821.691406 C 275.691406 826.503906 274.363281 831.328125 273.332031 836.210938 C 272.847656 838.496094 272.105469 839.339844 269.730469 838.667969 C 264.921875 837.3125 260.066406 836.136719 255.011719 834.832031 C 257.214844 827.136719 259.308594 820 261.292969 812.832031 C 262.53125 808.359375 263.546875 803.828125 264.769531 799.351562 C 266.890625 791.601562 269.164062 783.894531 271.238281 776.132812 C 273.164062 768.929688 274.832031 761.652344 276.765625 754.449219 C 278.671875 747.339844 280.820312 740.292969 282.761719 733.191406 C 284.085938 728.351562 285.324219 723.480469 286.425781 718.582031 C 286.910156 716.429688 287.507812 715.425781 290.039062 716.203125 C 294.816406 717.675781 299.707031 718.785156 304.695312 720.085938 C 303.394531 725.101562 302.226562 729.765625 300.96875 734.40625 C 299.5625 739.605469 298.085938 744.78125 296.632812 749.964844 C 295.0625 755.5625 293.609375 761.199219 291.867188 766.746094 C 290.5625 770.882812 291.355469 772.199219 295.691406 773.167969 C 300.851562 774.320312 305.929688 775.835938 311.046875 777.175781 C 311.574219 777.3125 312.132812 777.328125 313.101562 777.453125 C 314.761719 771.503906 316.398438 765.625 318.042969 759.746094 C 319.519531 754.457031 321.027344 749.175781 322.484375 743.882812 C 323.84375 738.953125 325.304688 734.046875 326.421875 729.0625 C 326.964844 726.640625 327.894531 726.179688 330.171875 726.875 C 334.148438 728.085938 338.203125 729.042969 342.238281 730.0625 C 344.253906 730.574219 344.925781 731.328125 344.21875 733.683594 C 341.960938 741.195312 340.113281 748.832031 338.035156 756.402344 C 336.664062 761.40625 335.125 766.367188 333.742188 771.367188 C 332.410156 776.1875 331.230469 781.054688 329.898438 785.875 C 327.824219 793.398438 325.625 800.894531 323.578125 808.425781 C 322.238281 813.355469 321.171875 818.359375 319.816406 823.285156 C 317.792969 830.628906 315.621094 837.929688 313.515625 845.246094 C 313.464844 845.429688 313.449219 845.621094 313.40625 845.804688 C 312.324219 850.277344 311.835938 850.472656 307.402344 849.097656 C 304.066406 848.0625 300.660156 847.238281 297.257812 846.429688 C 295.375 845.980469 294.898438 845.257812 295.453125 843.226562 C 298.710938 831.355469 301.757812 819.429688 304.9375 807.539062 C 305.761719 804.453125 306.738281 801.398438 307.761719 798.367188 C 308.902344 794.996094 308.351562 794.023438 304.765625 792.984375 C 299.707031 791.519531 294.6875 789.914062 289.632812 788.425781 C 288.832031 788.191406 287.941406 788.269531 286.554688 788.164062 "/>
<path fill-rule="nonzero" fill="#FFFFFF" fill-opacity="1" d="M 600.699219 188.253906 C 600.03125 194.035156 603.875 196.71875 608.019531 198.570312 C 611.648438 200.195312 615.019531 198.480469 617.652344 195.640625 C 620.101562 193.003906 622.464844 190.289062 624.902344 187.644531 C 630.730469 181.328125 636.644531 175.089844 642.402344 168.710938 C 647.765625 162.777344 653.046875 156.769531 658.214844 150.667969 C 661.601562 146.671875 665.035156 142.652344 667.875 138.269531 C 670.578125 134.097656 669.445312 128.96875 665.738281 126.179688 C 661.3125 122.847656 655.40625 123.101562 652.253906 126.402344 C 646.128906 132.816406 640.261719 139.484375 634.316406 146.074219 C 630.519531 150.289062 626.773438 154.550781 623.011719 158.792969 C 619.949219 162.238281 616.914062 165.707031 613.839844 169.140625 C 610.777344 172.554688 607.480469 175.777344 604.675781 179.382812 C 602.644531 181.988281 599.976562 184.535156 600.699219 188.253906 Z M 582.40625 183.996094 C 582.488281 180.648438 585.589844 175.832031 588.621094 171.273438 C 592.089844 166.0625 596.414062 161.40625 600.527344 156.644531 C 607.238281 148.871094 613.9375 141.074219 620.910156 133.535156 C 627.863281 126.019531 633.980469 117.628906 642.609375 111.796875 C 648.1875 108.027344 653.988281 104.976562 661.132812 105.734375 C 666.804688 106.335938 671.402344 109.089844 675.574219 112.570312 C 682.652344 118.476562 687.609375 125.652344 687.359375 135.367188 C 687.1875 142.027344 684.429688 147.804688 680.199219 152.734375 C 669.703125 164.964844 659.023438 177.035156 648.375 189.128906 C 643.269531 194.925781 638.199219 200.757812 632.871094 206.347656 C 625.492188 214.09375 616.738281 218.523438 605.714844 215.859375 C 597.988281 213.992188 592.117188 209.277344 587.660156 202.84375 C 584.289062 197.980469 582.480469 192.527344 582.40625 183.996094 "/>
<path fill-rule="nonzero" fill="#FFFFFF" fill-opacity="1" d="M 391.605469 71.847656 C 391.488281 71.847656 391.367188 71.847656 391.25 71.847656 C 391.25 82.796875 391.414062 93.746094 391.1875 104.6875 C 391.050781 111.167969 395.421875 116.867188 402.859375 116.09375 C 407.328125 115.628906 411.171875 112.535156 411.460938 108.007812 C 411.894531 101.222656 412.519531 94.4375 412.621094 87.644531 C 412.878906 70.324219 412.894531 53.003906 412.992188 35.679688 C 413.023438 30.472656 411.675781 26.226562 406.320312 23.808594 C 400.40625 21.140625 394.742188 24.0625 393.1875 29.523438 C 392.015625 33.644531 391.765625 38.113281 391.675781 42.441406 C 391.464844 52.238281 391.605469 62.046875 391.605469 71.847656 Z M 372.917969 76.285156 C 373.28125 62.492188 373.605469 48.699219 374.023438 34.910156 C 374.234375 28 375.664062 21.390625 379.957031 15.753906 C 384.300781 10.050781 390.464844 7.472656 397.3125 6.617188 C 406.257812 5.5 414.773438 6.824219 422.003906 12.703125 C 426.035156 15.980469 428.335938 20.402344 429.710938 25.425781 C 431.734375 32.820312 430.996094 40.351562 431.148438 47.835938 C 431.238281 52.308594 431.199219 56.789062 431.078125 61.261719 C 430.644531 77.144531 430.472656 93.046875 429.5625 108.902344 C 429.007812 118.527344 424.636719 126.535156 415.238281 130.375 C 407.507812 133.53125 399.4375 133.585938 391.265625 131.382812 C 383.546875 129.300781 378.398438 124.546875 375.535156 117.328125 C 373.566406 112.367188 373.03125 107.0625 373.066406 101.710938 C 373.121094 93.234375 373.082031 84.761719 373.082031 76.289062 C 373.027344 76.285156 372.972656 76.285156 372.917969 76.285156 "/>
<path fill-rule="nonzero" fill="#FFFFFF" fill-opacity="1" d="M 251.378906 149.707031 C 253.335938 148.957031 255.347656 148.320312 257.234375 147.429688 C 260.738281 145.773438 263.066406 141.664062 261.789062 138.121094 C 259.640625 132.148438 257.054688 126.3125 254.335938 120.570312 C 250.261719 111.96875 245.964844 103.472656 241.675781 94.976562 C 237.300781 86.3125 232.984375 77.617188 228.3125 69.117188 C 225.871094 64.667969 220.601562 60.710938 214.644531 64.433594 C 209.511719 67.644531 207.40625 71.3125 209.105469 76.335938 C 209.921875 78.742188 210.847656 81.136719 211.980469 83.40625 C 216.210938 91.855469 220.605469 100.21875 224.832031 108.667969 C 230.550781 120.105469 236.019531 131.671875 241.925781 143.007812 C 243.722656 146.464844 246.605469 149.359375 251.378906 149.707031 Z M 280.464844 140.300781 C 280.285156 149.730469 273.121094 158.324219 265.207031 162.367188 C 260.625 164.707031 255.878906 166.503906 250.703125 166.726562 C 239.585938 167.207031 231.796875 161.589844 226.640625 152.382812 C 221.734375 143.632812 217.574219 134.464844 213.0625 125.496094 C 209.476562 118.363281 205.765625 111.292969 202.261719 104.121094 C 198.976562 97.394531 195.667969 90.664062 192.769531 83.765625 C 187.609375 71.480469 191.53125 59.96875 202.195312 52.660156 C 207.71875 48.878906 213.671875 46.136719 220.542969 45.898438 C 229.675781 45.589844 236.804688 49.644531 241.589844 56.96875 C 246.054688 63.804688 249.519531 71.296875 253.320312 78.554688 C 256.40625 84.445312 259.386719 90.394531 262.324219 96.359375 C 266.074219 103.96875 269.84375 111.570312 273.398438 119.269531 C 275.445312 123.695312 277.226562 128.257812 278.855469 132.855469 C 279.695312 135.230469 279.949219 137.8125 280.464844 140.300781 "/>
<path fill-rule="nonzero" fill="#FFFFFF" fill-opacity="1" d="M 602.363281 650.46875 C 606.101562 647.066406 609.773438 643.617188 613.621094 640.375 C 614.058594 640.007812 615.832031 640.503906 616.402344 641.128906 C 624.480469 650.011719 632.488281 658.953125 640.449219 667.941406 C 651.304688 680.199219 662.101562 692.511719 672.929688 704.796875 C 677.273438 709.726562 681.726562 714.53125 684.632812 720.578125 C 689.101562 729.878906 688.210938 738.492188 681.957031 746.605469 C 677.144531 752.847656 670.949219 757.253906 663.367188 759.277344 C 656.816406 761.023438 650.25 759.855469 645.164062 755.503906 C 638.757812 750.027344 632.898438 743.855469 627.171875 737.644531 C 618.003906 727.703125 609.132812 717.484375 600.136719 707.382812 C 591.585938 697.769531 583.0625 688.136719 574.476562 678.558594 C 573.175781 677.105469 573.144531 676.097656 574.679688 674.800781 C 577.964844 672.015625 581.148438 669.113281 584.324219 666.203125 C 585.683594 664.964844 586.445312 664.765625 587.921875 666.453125 C 598.109375 678.105469 608.496094 689.589844 618.789062 701.148438 C 628.910156 712.519531 638.992188 723.925781 649.109375 735.300781 C 651.484375 737.96875 653.886719 740.738281 657.597656 741.472656 C 662.480469 742.441406 666.199219 739.777344 668.90625 735.414062 C 671.652344 730.984375 670.28125 727.769531 666.828125 723.570312 C 659.4375 714.578125 651.714844 705.851562 643.96875 697.152344 C 630.910156 682.488281 617.726562 667.929688 604.609375 653.316406 C 603.886719 652.511719 603.261719 651.613281 602.363281 650.46875 "/>
<path fill-rule="nonzero" fill="#FFFFFF" fill-opacity="1" d="M 125.558594 708.484375 C 129.226562 712.425781 132.613281 716.226562 136.183594 719.839844 C 138.441406 722.125 139.679688 721.859375 141.480469 719.214844 C 144.746094 714.414062 148.011719 709.609375 151.296875 704.820312 C 155.375 698.871094 159.441406 692.914062 163.570312 687 C 165.691406 683.964844 168.007812 681.066406 170.105469 678.019531 C 171.808594 675.550781 173.3125 672.949219 175.085938 670.121094 C 174.261719 670.085938 173.566406 669.832031 173.269531 670.070312 C 157.203125 682.960938 141.175781 695.894531 125.558594 708.484375 Z M 94.121094 733.28125 C 90.144531 729.675781 86.292969 726.1875 82.09375 722.378906 C 85.894531 719.304688 89.453125 716.351562 93.09375 713.5 C 100.484375 707.710938 107.949219 702.007812 115.339844 696.210938 C 124.96875 688.660156 134.554688 681.058594 144.160156 673.476562 C 155.257812 664.722656 166.371094 655.984375 177.449219 647.203125 C 180.648438 644.664062 180.558594 644.652344 183.722656 647.65625 C 188.082031 651.804688 192.542969 655.847656 196.910156 659.988281 C 199.003906 661.972656 199.421875 664.617188 197.914062 666.871094 C 192.222656 675.371094 186.429688 683.800781 180.730469 692.296875 C 173.925781 702.433594 167.226562 712.640625 160.394531 722.757812 C 154.9375 730.832031 149.292969 738.777344 143.839844 746.851562 C 139.753906 752.894531 135.816406 759.039062 131.871094 765.175781 C 130.980469 766.5625 130.148438 766.765625 128.925781 765.648438 C 125.679688 762.6875 122.425781 759.734375 119.128906 756.832031 C 117.71875 755.589844 117.363281 754.496094 118.601562 752.777344 C 121.546875 748.679688 124.269531 744.425781 127.105469 740.246094 C 129.519531 736.695312 129.316406 734.773438 126.152344 731.945312 C 122.070312 728.289062 117.914062 724.707031 113.933594 720.945312 C 112.628906 719.714844 111.644531 719.5625 110.292969 720.625 C 104.988281 724.800781 99.664062 728.945312 94.121094 733.28125 "/>
<path fill-rule="nonzero" fill="#FFFFFF" fill-opacity="1" d="M 220.453125 769.976562 C 225.558594 772.945312 230.3125 775.707031 235.09375 778.488281 C 231.136719 786.773438 226.269531 793.90625 220.664062 800.59375 C 212.894531 809.867188 202.246094 812.210938 191.269531 806.9375 C 186.6875 804.738281 182.359375 802.34375 178.847656 798.707031 C 172.332031 791.960938 171.761719 783.582031 174.21875 775.347656 C 176.164062 768.839844 179.777344 762.8125 182.828125 756.660156 C 185.03125 752.226562 187.484375 747.910156 189.910156 743.589844 C 193.695312 736.835938 197.570312 730.132812 201.378906 723.394531 C 204.804688 717.328125 208.015625 711.132812 211.636719 705.1875 C 217.195312 696.0625 224.964844 690.035156 236.117188 690.117188 C 240.902344 690.148438 245.230469 692.296875 249.457031 694.679688 C 253.769531 697.113281 257.429688 699.996094 260.335938 704.046875 C 264.996094 710.546875 265.683594 717.4375 262.9375 724.742188 C 260.941406 730.058594 258.714844 735.285156 256.519531 740.519531 C 256.03125 741.6875 255.464844 742.972656 254.546875 743.753906 C 253.867188 744.328125 252.332031 744.644531 251.582031 744.265625 C 247.785156 742.355469 244.046875 740.296875 240.480469 737.988281 C 239.886719 737.601562 239.808594 735.53125 240.242188 734.585938 C 241.882812 730.988281 243.90625 727.566406 245.644531 724.011719 C 247.339844 720.546875 248.066406 716.726562 245.960938 713.386719 C 243.429688 709.375 239.4375 707.410156 234.527344 708.230469 C 231.074219 708.8125 228.964844 711.367188 227.257812 714.078125 C 224.777344 718.011719 222.589844 722.132812 220.320312 726.199219 C 216.195312 733.582031 212.101562 740.980469 208 748.371094 C 203.613281 756.273438 199.203125 764.160156 194.875 772.089844 C 193.578125 774.464844 192.691406 777.070312 191.292969 779.375 C 189.542969 782.253906 191.0625 787.066406 194.019531 789.28125 C 197.273438 791.722656 201.253906 794.027344 205.453125 791.488281 C 207.730469 790.113281 209.78125 787.972656 211.238281 785.726562 C 214.5 780.699219 217.324219 775.390625 220.453125 769.976562 "/>
<path fill-rule="nonzero" fill="#FFFFFF" fill-opacity="1" d="M 513.289062 793.230469 C 518.457031 791.660156 523.652344 790.085938 528.996094 788.464844 C 532.066406 797.003906 534.855469 805.644531 535.535156 814.703125 C 536.476562 827.15625 530.214844 836.046875 518.535156 839.972656 C 516.121094 840.785156 513.679688 841.546875 511.203125 842.167969 C 498.933594 845.246094 487.105469 838.78125 482.773438 826.628906 C 480.304688 819.699219 478.132812 812.660156 475.941406 805.636719 C 472.226562 793.710938 468.472656 781.792969 464.984375 769.796875 C 463.058594 763.164062 461.433594 756.425781 460.050781 749.660156 C 458.730469 743.1875 459.308594 736.84375 462.867188 731.019531 C 465.492188 726.726562 469.289062 723.714844 473.804688 721.808594 C 479.136719 719.5625 484.679688 718.035156 490.617188 718.214844 C 500.488281 718.511719 507.191406 723.371094 511.117188 732.175781 C 513.417969 737.34375 515.382812 742.664062 517.410156 747.945312 C 518.730469 751.390625 517.964844 752.492188 514.453125 753.355469 C 511.617188 754.050781 508.835938 755.003906 506.089844 756.003906 C 502.933594 757.15625 502.222656 756.695312 501.210938 753.554688 C 499.738281 748.996094 498.183594 744.4375 496.226562 740.074219 C 494.003906 735.109375 488.777344 734 484.136719 735.648438 C 478.515625 737.648438 476.285156 742.328125 477.710938 748.039062 C 479.035156 753.351562 480.484375 758.628906 482 763.886719 C 484.464844 772.445312 487.003906 780.980469 489.5625 789.511719 C 490.972656 794.214844 492.507812 798.878906 493.945312 803.570312 C 495.238281 807.789062 496.53125 812.011719 497.722656 816.257812 C 498.753906 819.929688 500.371094 823.457031 504.140625 824.5625 C 508.722656 825.910156 513.367188 825.503906 516.78125 821.398438 C 518.800781 818.972656 519.132812 816.066406 518.421875 813.136719 C 516.839844 806.636719 515.09375 800.179688 513.289062 793.230469 "/>
<path fill-rule="nonzero" fill="#FFFFFF" fill-opacity="1" d="M 45.585938 675.164062 C 43.300781 671.851562 41.082031 668.632812 38.871094 665.410156 C 37.910156 664.011719 36.792969 662.679688 36.105469 661.15625 C 35.8125 660.511719 36.167969 658.925781 36.691406 658.652344 C 46.390625 653.605469 55.027344 646.964844 64.066406 640.910156 C 72.011719 635.59375 77.222656 627.925781 83.339844 621.082031 C 94.898438 608.140625 105.828125 594.640625 117.046875 581.394531 C 119.21875 578.824219 121.511719 576.355469 123.742188 573.835938 C 124.914062 572.511719 125.9375 572.582031 126.941406 574.066406 C 128.652344 576.59375 130.464844 579.054688 132.140625 581.605469 C 135.054688 586.03125 134.949219 588.1875 131.527344 591.960938 C 123.414062 600.910156 115.230469 609.796875 107.121094 618.746094 C 104.265625 621.902344 101.519531 625.164062 98.765625 628.414062 C 98.128906 629.171875 97.667969 630.082031 97.128906 630.921875 C 97.265625 631.132812 97.40625 631.347656 97.542969 631.5625 C 99.273438 631.035156 101.027344 630.570312 102.730469 629.972656 C 108.40625 627.972656 114.046875 625.875 119.730469 623.914062 C 123.796875 622.515625 127.925781 621.308594 132.003906 619.953125 C 135.738281 618.714844 139.4375 617.355469 143.175781 616.117188 C 145.5 615.351562 147.835938 614.417969 150.234375 614.136719 C 151.53125 613.984375 153.519531 614.640625 154.246094 615.628906 C 156.71875 619 158.769531 622.683594 161.230469 626.652344 C 158.03125 627.875 155.460938 629.023438 152.789062 629.84375 C 146.65625 631.726562 140.441406 633.34375 134.320312 635.253906 C 120.796875 639.476562 107.3125 643.832031 93.796875 648.089844 C 89.679688 649.386719 85.410156 650.261719 81.414062 651.847656 C 78.273438 653.097656 75.367188 655.019531 72.496094 656.867188 C 65.921875 661.101562 59.410156 665.4375 52.917969 669.796875 C 50.617188 671.339844 48.441406 673.0625 45.585938 675.164062 "/>
<path fill-rule="nonzero" fill="#FFFFFF" fill-opacity="1" d="M 151.253906 83.335938 C 154.769531 87.535156 158.078125 91.488281 161.683594 95.796875 C 158.21875 98.726562 154.910156 101.597656 151.53125 104.375 C 145.023438 109.726562 145.753906 108.230469 150.222656 113.816406 C 161.117188 127.425781 172.21875 140.871094 183.132812 154.46875 C 193.035156 166.800781 202.808594 179.242188 213.035156 192.140625 C 210.253906 194.523438 207.574219 196.957031 204.742188 199.195312 C 202.972656 200.59375 200.820312 202.839844 199.113281 202.617188 C 197.46875 202.398438 196.144531 199.523438 194.734375 197.769531 C 185.925781 186.8125 177.15625 175.824219 168.324219 164.882812 C 159.914062 154.46875 151.445312 144.097656 143 133.707031 C 139.929688 129.925781 136.777344 126.207031 133.820312 122.335938 C 132.546875 120.664062 131.699219 120.449219 129.980469 121.871094 C 125.574219 125.515625 120.96875 128.921875 116.277344 132.550781 C 113.273438 128.902344 110.265625 125.328125 107.351562 121.679688 C 106.078125 120.085938 107.015625 118.921875 108.34375 117.851562 C 113.609375 113.625 118.839844 109.351562 124.09375 105.109375 C 132.261719 98.519531 140.4375 91.941406 148.613281 85.363281 C 149.34375 84.777344 150.097656 84.226562 151.253906 83.335938 "/>
<path fill-rule="nonzero" fill="#FFFFFF" fill-opacity="1" d="M 531.234375 164.199219 C 538.609375 150.886719 545.625 138.128906 552.738281 125.425781 C 557.429688 117.050781 562.320312 108.792969 567.019531 100.425781 C 572.121094 91.34375 577.097656 82.191406 582.136719 73.074219 C 583.203125 71.140625 582.21875 70.144531 580.605469 69.214844 C 575.792969 66.453125 571.027344 63.605469 566.085938 60.691406 C 568.402344 56.429688 570.496094 52.273438 572.957031 48.347656 C 573.375 47.683594 575.632812 47.492188 576.597656 47.972656 C 580.894531 50.105469 585.035156 52.554688 589.226562 54.90625 C 597.691406 59.652344 606.15625 64.398438 614.609375 69.167969 C 617.382812 70.734375 620.03125 72.554688 622.898438 73.917969 C 624.589844 74.71875 624.425781 75.660156 623.777344 76.804688 C 621.539062 80.730469 619.222656 84.609375 616.699219 88.902344 C 612.21875 86.566406 607.753906 84.367188 603.414062 81.941406 C 599.496094 79.753906 599.328125 79.605469 597.035156 83.550781 C 592.757812 90.910156 588.640625 98.359375 584.429688 105.757812 C 578.964844 115.371094 573.410156 124.933594 568.015625 134.585938 C 562.789062 143.941406 557.726562 153.386719 552.566406 162.78125 C 550.992188 165.644531 549.390625 168.496094 547.679688 171.277344 C 547.335938 171.832031 546.179688 172.519531 545.832031 172.332031 C 540.925781 169.707031 536.09375 166.941406 531.234375 164.199219 "/>
<path fill-rule="nonzero" fill="#FFFFFF" fill-opacity="1" d="M 414.730469 749.9375 C 409.210938 749.9375 404.089844 749.890625 398.96875 749.953125 C 395.597656 749.992188 394.796875 750.796875 394.75 754.191406 C 394.53125 771.035156 394.417969 787.882812 394.152344 804.722656 C 393.890625 821.277344 393.46875 837.828125 393.179688 854.382812 C 393.144531 856.398438 392.554688 857.230469 390.375 857.21875 C 386.578125 857.195312 382.777344 857.464844 378.984375 857.730469 C 377.289062 857.851562 376.480469 857.058594 376.238281 855.566406 C 375.96875 853.886719 375.660156 852.179688 375.675781 850.488281 C 375.945312 818.695312 376.261719 786.90625 376.5625 755.113281 C 376.578125 753.519531 376.5625 751.921875 376.5625 749.808594 C 374.285156 749.808594 372.324219 749.855469 370.371094 749.796875 C 366.761719 749.6875 363.152344 749.472656 359.539062 749.378906 C 358.039062 749.34375 357.246094 748.828125 357.261719 747.207031 C 357.304688 742.738281 357.277344 738.269531 357.277344 733.472656 C 358.359375 733.398438 359.265625 733.28125 360.171875 733.285156 C 376.546875 733.328125 392.917969 733.378906 409.289062 733.449219 C 412.992188 733.46875 414.65625 735.117188 414.71875 738.859375 C 414.773438 742.453125 414.730469 746.054688 414.730469 749.9375 "/>
<path fill-rule="nonzero" fill="#FFFFFF" fill-opacity="1" d="M 624.125 790.742188 C 609.824219 798.722656 595.625 806.644531 581.097656 814.753906 C 578.871094 810.9375 576.617188 807.1875 574.480469 803.375 C 569.136719 793.863281 563.820312 784.332031 558.539062 774.785156 C 554.773438 767.992188 551.128906 761.132812 547.34375 754.347656 C 542.859375 746.3125 538.28125 738.332031 533.746094 730.328125 C 529.644531 723.082031 525.511719 715.847656 521.492188 708.554688 C 521.1875 708 521.414062 706.558594 521.859375 706.285156 C 526.175781 703.625 530.554688 701.054688 535.035156 698.6875 C 535.480469 698.453125 537.066406 699.523438 537.53125 700.328125 C 540.890625 706.113281 544.09375 711.984375 547.347656 717.828125 C 553.765625 729.347656 560.199219 740.859375 566.59375 752.390625 C 573.105469 764.132812 579.5625 775.902344 586.085938 787.636719 C 586.761719 788.851562 587.726562 789.910156 588.773438 791.339844 C 592.234375 789.441406 595.722656 787.546875 599.191406 785.617188 C 604.359375 782.742188 609.492188 779.789062 614.726562 777.035156 C 615.261719 776.753906 616.816406 777.339844 617.171875 777.949219 C 619.566406 782.097656 621.769531 786.355469 624.125 790.742188 "/>
<path fill-rule="nonzero" fill="#FFFFFF" fill-opacity="1" d="M 442.769531 340.730469 C 441.480469 340.746094 440.644531 340.460938 440.140625 339.902344 C 439.105469 339.578125 438.105469 339.058594 437.109375 338.71875 C 436.660156 338.5625 436.203125 338.433594 435.75 338.289062 C 435.253906 338.179688 434.742188 338.015625 434.257812 337.90625 C 433.945312 337.839844 433.652344 337.667969 433.355469 337.53125 C 433.097656 337.449219 432.835938 337.367188 432.578125 337.285156 C 427.566406 336.109375 422.523438 335.058594 417.570312 333.679688 C 416.359375 333.339844 415.738281 333.019531 414.277344 332.636719 C 412.734375 332.589844 411.660156 331.9375 410.246094 332.0625 C 408.761719 332.191406 407.230469 331.75 405.71875 331.722656 C 403.859375 331.6875 402.835938 332.730469 403.011719 334.582031 C 403.191406 336.472656 401.117188 339.109375 404.644531 339.988281 C 407.847656 340.785156 411.0625 341.546875 414.257812 342.363281 C 417.082031 343.082031 419.894531 343.84375 422.703125 344.597656 C 429.183594 346.332031 435.601562 348.355469 442.171875 349.628906 C 443.882812 349.960938 446.441406 348.339844 447.871094 346.886719 C 448.878906 345.855469 444.707031 340.710938 442.769531 340.730469 "/>
<path fill-rule="nonzero" fill="#FFFFFF" fill-opacity="1" d="M 452.878906 229.914062 C 451.011719 235.570312 449.265625 241.269531 447.4375 246.941406 C 444.777344 255.222656 442.128906 263.503906 439.398438 271.761719 C 438.398438 274.792969 437.753906 278.191406 433.53125 278.605469 C 432.945312 278.660156 432.148438 279.667969 431.992188 280.355469 C 431.511719 282.445312 430.273438 284.652344 432.523438 286.597656 C 432.933594 286.953125 433.121094 287.886719 433.003906 288.472656 C 432.175781 292.589844 431.292969 296.695312 430.328125 300.78125 C 429.683594 303.511719 428.878906 306.203125 428.140625 308.910156 C 427.472656 311.34375 426.8125 313.773438 426.105469 316.191406 C 426.011719 316.507812 425.691406 316.933594 425.410156 316.992188 C 421.867188 317.757812 421.644531 320.570312 421.167969 323.40625 C 420.976562 324.53125 420.089844 326.324219 419.339844 326.421875 C 416.445312 326.796875 417.289062 327.574219 415.828125 329.273438 C 419.503906 330.023438 422.035156 330.929688 425.804688 331.261719 C 428.777344 331.523438 431.691406 332.601562 434.585938 333.578125 C 436.257812 333.601562 437.933594 333.933594 439.542969 334.351562 C 439.328125 333.230469 438.734375 332.234375 437.316406 331.457031 C 436.644531 331.085938 436.867188 328.96875 436.800781 327.648438 C 436.683594 325.1875 436.667969 322.726562 436.585938 320.265625 C 436.550781 319.144531 436.230469 317.980469 436.433594 316.910156 C 437.003906 313.890625 437.679688 310.882812 438.492188 307.917969 C 439.945312 302.609375 441.476562 297.316406 443.121094 292.0625 C 443.339844 291.375 444.359375 290.800781 445.132812 290.449219 C 448.039062 289.144531 450.0625 282.589844 447.730469 281.019531 C 446.121094 279.9375 446.148438 278.792969 446.347656 277.496094 C 446.753906 274.78125 447.386719 272.101562 447.964844 269.414062 C 449.886719 260.523438 451.816406 251.636719 453.753906 242.75 C 454.519531 239.226562 455.871094 235.71875 455.9375 232.1875 C 456.023438 227.65625 457.96875 223.714844 458.777344 219.453125 C 459.546875 215.410156 460.355469 211.375 461.144531 207.339844 C 457.980469 214.769531 455.386719 222.328125 452.878906 229.914062 "/>
</svg>
